<?xml version="1.0" encoding="UTF-8"?>
<svg height="600" width="800" xmlns="http://www.w3.org/2000/svg" xmlns:xlink="http://www.w3.org/1999/xlink">
    <g id="Notes" font-family="'LucidaGrande', 'Lucida Grande', sans-serif" font-size="13">
        <rect fill="white" height="600.0" width="800.0" x="0.0" y="0.0" />
        <g font-size="13">
            <text x="18.0" y="176.0">Small</text>
            <text x="18.0" y="376.0">Medium</text>
            <text x="18.0" y="576.0">Large</text>
        </g>
        <g font-size="9">
            <text x="250.0" y="30.0">Ultralight</text>
            <text x="450.0" y="30.0">Regular</text>
            <text x="650.0" y="30.0">Black</text>
            <text id="template-version" fill="#505050" text-anchor="end" x="785.0" y="575.0">Template v.3.0</text>
            <a href="https://wangchujiang.com/#/app">
                <text fill="#505050" text-anchor="end" x="785.0" y="590.0">https://wangchujiang.com/#/app</text>
            </a>
        </g>
    </g>
    <g id="Guides" stroke="rgb(39, 170, 225)" stroke-width="0.5">
        <path id="Capline-S" d="M18,76 l800,0" />
        <path id="H-reference" d="M85,145.755 L87.685,145.755 L113.369,79.287 L114.052,79.287 L114.052,76 L112.148,76 L85,145.755 Z M95.693,121.536 L130.996,121.536 L130.263,119.313 L96.474,119.313 L95.693,121.536 Z M139.15,145.755 L141.787,145.755 L114.638,76 L113.466,76 L113.466,79.287 L139.15,145.755 Z" stroke="none" />
        <path id="Baseline-S" d="M18,146 l800,0" />
        <path id="left-margin-Ultralight-S" d="M215.923,56 l0,110" />
        <path id="right-margin-Ultralight-S" d="M314.077,56 l0,110" />
        <path id="left-margin-Regular-S" d="M415.923,56 l0,110" />
        <path id="right-margin-Regular-S" d="M514.077,56 l0,110" />
        <path id="left-margin-Black-S" d="M615.923,56 l0,110" />
        <path id="right-margin-Black-S" d="M714.077,56 l0,110" />
        <path id="Capline-M" d="M18,276 l800,0" />
        <path id="Baseline-M" d="M18,346 l800,0" />
        <path id="Capline-L" d="M18,476 l800,0" />
        <path id="Baseline-L" d="M18,546 l800,0" />
    </g>
    <g id="Symbols">
        <g id="Ultralight-S">
            <path d="M284.872,141.16 C275.653,146.473 263.035,147.02 250.261,141.551 C240.232,137.246 231.745,129.999 225.923,120.768 C228.541,122.917 231.627,124.675 234.908,126.237 C248.073,132.37 261.199,131.941 270.457,126.237 C257.292,116.119 246.081,102.955 237.76,92.212 C236.002,90.454 234.713,88.266 233.385,86.313 C265.73,109.947 264.324,115.963 242.799,82.368 C261.902,101.666 279.637,112.604 279.637,112.604 C280.262,112.955 280.614,113.229 281.044,113.463 C281.434,112.486 281.786,111.471 282.059,110.416 C285.146,99.283 281.63,86.508 273.934,76 C291.708,86.743 302.256,106.9 297.842,123.815 C297.724,124.245 297.607,124.675 297.646,125.339 C306.397,136.394 304.053,147.918 302.92,145.731 C298.193,136.394 289.325,139.285 284.872,141.16" />
        </g>
        <g id="Regular-S">
            <path d="M484.872,141.16 C475.653,146.473 463.035,147.02 450.261,141.551 C440.232,137.246 431.745,129.999 425.923,120.768 C428.541,122.917 431.627,124.675 434.908,126.237 C448.073,132.37 461.199,131.941 470.457,126.237 C457.292,116.119 446.081,102.955 437.76,92.212 C436.002,90.454 434.713,88.266 433.385,86.313 C465.73,109.947 464.324,115.963 442.799,82.368 C461.902,101.666 479.637,112.604 479.637,112.604 C480.262,112.955 480.614,113.229 481.044,113.463 C481.434,112.486 481.786,111.471 482.059,110.416 C485.146,99.283 481.63,86.508 473.934,76 C491.708,86.743 502.256,106.9 497.842,123.815 C497.724,124.245 497.607,124.675 497.646,125.339 C506.397,136.394 504.053,147.918 502.92,145.731 C498.193,136.394 489.325,139.285 484.872,141.16" />
        </g>
        <g id="Black-S">
            <path d="M684.872,141.16 C675.653,146.473 663.035,147.02 650.261,141.551 C640.232,137.246 631.745,129.999 625.923,120.768 C628.541,122.917 631.627,124.675 634.908,126.237 C648.073,132.37 661.199,131.941 670.457,126.237 C657.292,116.119 646.081,102.955 637.76,92.212 C636.002,90.454 634.713,88.266 633.385,86.313 C665.73,109.947 664.324,115.963 642.799,82.368 C661.902,101.666 679.637,112.604 679.637,112.604 C680.262,112.955 680.614,113.229 681.044,113.463 C681.434,112.486 681.786,111.471 682.059,110.416 C685.146,99.283 681.63,86.508 673.934,76 C691.708,86.743 702.256,106.9 697.842,123.815 C697.724,124.245 697.607,124.675 697.646,125.339 C706.397,136.394 704.053,147.918 702.92,145.731 C698.193,136.394 689.325,139.285 684.872,141.16" />
        </g>
    </g>
</svg>