<?xml version="1.0" encoding="UTF-8"?>
<svg height="600" width="800" xmlns="http://www.w3.org/2000/svg" xmlns:xlink="http://www.w3.org/1999/xlink">
    <g id="Notes" font-family="'LucidaGrande', 'Lucida Grande', sans-serif" font-size="13">
        <rect fill="white" height="600.0" width="800.0" x="0.0" y="0.0" />
        <g font-size="13">
            <text x="18.0" y="176.0">Small</text>
            <text x="18.0" y="376.0">Medium</text>
            <text x="18.0" y="576.0">Large</text>
        </g>
        <g font-size="9">
            <text x="250.0" y="30.0">Ultralight</text>
            <text x="450.0" y="30.0">Regular</text>
            <text x="650.0" y="30.0">Black</text>
            <text id="template-version" fill="#505050" text-anchor="end" x="785.0" y="575.0">Template v.3.0</text>
            <a href="https://wangchujiang.com/#/app">
                <text fill="#505050" text-anchor="end" x="785.0" y="590.0">https://wangchujiang.com/#/app</text>
            </a>
        </g>
    </g>
    <g id="Guides" stroke="rgb(39, 170, 225)" stroke-width="0.5">
        <path id="Capline-S" d="M18,76 l800,0" />
        <path id="H-reference" d="M85,145.755 L87.685,145.755 L113.369,79.287 L114.052,79.287 L114.052,76 L112.148,76 L85,145.755 Z M95.693,121.536 L130.996,121.536 L130.263,119.313 L96.474,119.313 L95.693,121.536 Z M139.15,145.755 L141.787,145.755 L114.638,76 L113.466,76 L113.466,79.287 L139.15,145.755 Z" stroke="none" />
        <path id="Baseline-S" d="M18,146 l800,0" />
        <path id="left-margin-Ultralight-S" d="M211,56 l0,110" />
        <path id="right-margin-Ultralight-S" d="M319,56 l0,110" />
        <path id="left-margin-Regular-S" d="M411,56 l0,110" />
        <path id="right-margin-Regular-S" d="M519,56 l0,110" />
        <path id="left-margin-Black-S" d="M611,56 l0,110" />
        <path id="right-margin-Black-S" d="M719,56 l0,110" />
        <path id="Capline-M" d="M18,276 l800,0" />
        <path id="Baseline-M" d="M18,346 l800,0" />
        <path id="Capline-L" d="M18,476 l800,0" />
        <path id="Baseline-L" d="M18,546 l800,0" />
    </g>
    <g id="Symbols">
        <g id="Ultralight-S">
            <path d="M265,133.002 C275.742,133.002 284.685,125.302 286.615,115.127 L304.875,115.127 C307.153,115.127 309,113.28 309,111.002 C309,108.723 307.153,106.877 304.875,106.877 L286.615,106.877 C284.634,96.502 275.562,88.998 265,88.998 C254.438,88.998 245.366,96.502 243.385,106.877 L225.125,106.877 C222.847,106.877 221,108.723 221,111.002 C221,113.28 222.847,115.127 225.125,115.127 L243.385,115.127 C245.367,125.5 254.439,133.002 265,133.002 Z M265,124.752 C257.406,124.752 251.25,118.596 251.25,111.002 C251.25,103.408 257.406,97.252 265,97.252 C272.594,97.252 278.75,103.408 278.75,111.002 C278.75,118.596 272.594,124.752 265,124.752 Z" />
        </g>
        <g id="Regular-S">
            <path d="M465,133.002 C475.742,133.002 484.685,125.302 486.615,115.127 L504.875,115.127 C507.153,115.127 509,113.28 509,111.002 C509,108.723 507.153,106.877 504.875,106.877 L486.615,106.877 C484.634,96.502 475.562,88.998 465,88.998 C454.438,88.998 445.366,96.502 443.385,106.877 L425.125,106.877 C422.847,106.877 421,108.723 421,111.002 C421,113.28 422.847,115.127 425.125,115.127 L443.385,115.127 C445.367,125.5 454.439,133.002 465,133.002 Z M465,124.752 C457.406,124.752 451.25,118.596 451.25,111.002 C451.25,103.408 457.406,97.252 465,97.252 C472.594,97.252 478.75,103.408 478.75,111.002 C478.75,118.596 472.594,124.752 465,124.752 Z" />
        </g>
        <g id="Black-S">
            <path d="M665,133.002 C675.742,133.002 684.685,125.302 686.615,115.127 L704.875,115.127 C707.153,115.127 709,113.28 709,111.002 C709,108.723 707.153,106.877 704.875,106.877 L686.615,106.877 C684.634,96.502 675.562,88.998 665,88.998 C654.438,88.998 645.366,96.502 643.385,106.877 L625.125,106.877 C622.847,106.877 621,108.723 621,111.002 C621,113.28 622.847,115.127 625.125,115.127 L643.385,115.127 C645.367,125.5 654.439,133.002 665,133.002 Z M665,124.752 C657.406,124.752 651.25,118.596 651.25,111.002 C651.25,103.408 657.406,97.252 665,97.252 C672.594,97.252 678.75,103.408 678.75,111.002 C678.75,118.596 672.594,124.752 665,124.752 Z" />
        </g>
    </g>
</svg>