<?xml version="1.0" encoding="UTF-8"?>
<svg height="600" width="800" xmlns="http://www.w3.org/2000/svg" xmlns:xlink="http://www.w3.org/1999/xlink">
    <g id="Notes" font-family="'LucidaGrande', 'Lucida Grande', sans-serif" font-size="13">
        <rect fill="white" height="600.0" width="800.0" x="0.0" y="0.0" />
        <g font-size="13">
            <text x="18.0" y="176.0">Small</text>
            <text x="18.0" y="376.0">Medium</text>
            <text x="18.0" y="576.0">Large</text>
        </g>
        <g font-size="9">
            <text x="250.0" y="30.0">Ultralight</text>
            <text x="450.0" y="30.0">Regular</text>
            <text x="650.0" y="30.0">Black</text>
            <text id="template-version" fill="#505050" text-anchor="end" x="785.0" y="575.0">Template v.3.0</text>
            <a href="https://wangchujiang.com/#/app">
                <text fill="#505050" text-anchor="end" x="785.0" y="590.0">https://wangchujiang.com/#/app</text>
            </a>
        </g>
    </g>
    <g id="Guides" stroke="rgb(39, 170, 225)" stroke-width="0.5">
        <path id="Capline-S" d="M18,76 l800,0" />
        <path id="H-reference" d="M85,145.755 L87.685,145.755 L113.369,79.287 L114.052,79.287 L114.052,76 L112.148,76 L85,145.755 Z M95.693,121.536 L130.996,121.536 L130.263,119.313 L96.474,119.313 L95.693,121.536 Z M139.15,145.755 L141.787,145.755 L114.638,76 L113.466,76 L113.466,79.287 L139.15,145.755 Z" stroke="none" />
        <path id="Baseline-S" d="M18,146 l800,0" />
        <path id="left-margin-Ultralight-S" d="M220.476,56 l0,110" />
        <path id="right-margin-Ultralight-S" d="M309.524,56 l0,110" />
        <path id="left-margin-Regular-S" d="M420.476,56 l0,110" />
        <path id="right-margin-Regular-S" d="M509.524,56 l0,110" />
        <path id="left-margin-Black-S" d="M620.476,56 l0,110" />
        <path id="right-margin-Black-S" d="M709.524,56 l0,110" />
        <path id="Capline-M" d="M18,276 l800,0" />
        <path id="Baseline-M" d="M18,346 l800,0" />
        <path id="Capline-L" d="M18,476 l800,0" />
        <path id="Baseline-L" d="M18,546 l800,0" />
    </g>
    <g id="Symbols">
        <g id="Ultralight-S">
            <path d="M294.989,104.645 C296.572,99.877 296.024,94.658 293.485,90.322 C289.667,83.676 281.993,80.257 274.498,81.864 C270.274,77.166 263.866,75.077 257.685,76.383 C251.504,77.689 246.489,82.192 244.527,88.197 C239.604,89.206 235.355,92.289 232.867,96.655 C229.007,103.291 229.884,111.661 235.034,117.354 C233.444,122.12 233.988,127.34 236.524,131.676 C240.347,138.325 248.026,141.744 255.525,140.135 C258.86,143.891 263.652,146.028 268.675,146 C276.357,146.006 283.163,141.047 285.509,133.733 C290.431,132.721 294.68,129.639 297.169,125.274 C300.982,118.65 300.102,110.325 294.989,104.645 Z M268.675,141.419 C265.608,141.423 262.638,140.349 260.285,138.383 L260.699,138.148 L274.636,130.104 C275.341,129.69 275.777,128.935 275.781,128.117 L275.781,108.467 L281.673,111.876 C281.732,111.906 281.773,111.962 281.784,112.027 L281.784,128.31 C281.768,135.543 275.908,141.403 268.675,141.419 Z M240.498,129.386 C238.96,126.731 238.408,123.618 238.939,120.596 L239.352,120.845 L253.303,128.889 C254.006,129.302 254.877,129.302 255.58,128.889 L272.621,119.065 L272.621,125.867 C272.618,125.939 272.582,126.005 272.525,126.047 L258.409,134.188 C252.136,137.802 244.121,135.653 240.498,129.386 Z M236.827,99.029 C238.376,96.356 240.82,94.318 243.727,93.275 L243.727,109.833 C243.716,110.648 244.15,111.404 244.858,111.806 L261.817,121.59 L255.925,124.998 C255.86,125.032 255.783,125.032 255.718,124.998 L241.629,116.871 C235.369,113.242 233.222,105.234 236.827,98.96 L236.827,99.029 Z M285.233,110.275 L268.219,100.395 L274.098,97 C274.163,96.966 274.24,96.966 274.305,97 L288.393,105.142 C292.791,107.679 295.327,112.527 294.905,117.586 C294.483,122.645 291.177,127.006 286.42,128.779 L286.42,112.22 C286.395,111.408 285.944,110.669 285.233,110.275 Z M291.098,101.458 L290.684,101.209 L276.761,93.095 C276.054,92.68 275.177,92.68 274.47,93.095 L257.442,102.92 L257.442,96.118 C257.435,96.047 257.467,95.978 257.525,95.938 L271.614,87.811 C276.021,85.271 281.5,85.508 285.672,88.419 C289.844,91.329 291.958,96.389 291.097,101.402 L291.097,101.458 Z M254.228,113.517 L248.336,110.123 C248.276,110.087 248.235,110.026 248.225,109.957 L248.225,93.717 C248.232,88.631 251.176,84.007 255.783,81.85 C260.389,79.693 265.826,80.392 269.737,83.643 L269.323,83.878 L255.386,91.923 C254.681,92.336 254.246,93.092 254.241,93.91 L254.227,113.518 Z M257.429,106.618 L265.018,102.244 L272.621,106.618 L272.621,115.366 L265.046,119.741 L257.443,115.366 L257.429,106.618 Z" />
        </g>
        <g id="Regular-S">
            <path d="M494.989,104.645 C496.572,99.877 496.024,94.658 493.485,90.322 C489.667,83.676 481.993,80.257 474.498,81.864 C470.274,77.166 463.866,75.077 457.685,76.383 C451.504,77.689 446.489,82.192 444.527,88.197 C439.604,89.206 435.355,92.289 432.867,96.655 C429.007,103.291 429.884,111.661 435.034,117.354 C433.444,122.12 433.988,127.34 436.524,131.676 C440.347,138.325 448.026,141.744 455.525,140.135 C458.86,143.891 463.652,146.028 468.675,146 C476.357,146.006 483.163,141.047 485.509,133.733 C490.431,132.721 494.68,129.639 497.169,125.274 C500.982,118.65 500.102,110.325 494.989,104.645 Z M468.675,141.419 C465.608,141.423 462.638,140.349 460.285,138.383 L460.699,138.148 L474.636,130.104 C475.341,129.69 475.777,128.935 475.781,128.117 L475.781,108.467 L481.673,111.876 C481.732,111.906 481.773,111.962 481.784,112.027 L481.784,128.31 C481.768,135.543 475.908,141.403 468.675,141.419 Z M440.498,129.386 C438.96,126.731 438.408,123.618 438.939,120.596 L439.353,120.845 L453.303,128.889 C454.006,129.302 454.877,129.302 455.58,128.889 L472.621,119.065 L472.621,125.867 C472.618,125.939 472.582,126.005 472.525,126.047 L458.409,134.188 C452.136,137.802 444.121,135.653 440.498,129.386 Z M436.827,99.029 C438.376,96.356 440.82,94.318 443.727,93.275 L443.727,109.833 C443.716,110.648 444.15,111.404 444.858,111.806 L461.817,121.59 L455.925,124.998 C455.86,125.032 455.783,125.032 455.718,124.998 L441.629,116.871 C435.369,113.242 433.222,105.234 436.827,98.96 L436.827,99.029 Z M485.233,110.275 L468.219,100.395 L474.098,97 C474.163,96.966 474.24,96.966 474.305,97 L488.393,105.142 C492.791,107.679 495.327,112.527 494.905,117.586 C494.483,122.645 491.177,127.006 486.42,128.779 L486.42,112.22 C486.395,111.408 485.944,110.669 485.233,110.275 Z M491.098,101.458 L490.684,101.209 L476.761,93.095 C476.054,92.68 475.177,92.68 474.47,93.095 L457.442,102.92 L457.442,96.118 C457.435,96.047 457.467,95.978 457.525,95.938 L471.614,87.811 C476.021,85.271 481.5,85.508 485.672,88.419 C489.844,91.329 491.958,96.389 491.097,101.402 L491.097,101.458 Z M454.228,113.517 L448.336,110.123 C448.276,110.087 448.235,110.026 448.225,109.957 L448.225,93.717 C448.232,88.631 451.176,84.007 455.783,81.85 C460.389,79.693 465.826,80.392 469.737,83.643 L469.323,83.878 L455.386,91.923 C454.681,92.336 454.246,93.092 454.241,93.91 L454.227,113.518 Z M457.429,106.618 L465.018,102.244 L472.621,106.618 L472.621,115.366 L465.046,119.741 L457.443,115.366 L457.429,106.618 Z" />
        </g>
        <g id="Black-S">
            <path d="M694.989,104.645 C696.572,99.877 696.024,94.658 693.485,90.322 C689.667,83.676 681.992,80.257 674.498,81.864 C670.274,77.166 663.866,75.077 657.685,76.383 C651.504,77.689 646.489,82.192 644.527,88.197 C639.604,89.206 635.355,92.289 632.867,96.655 C629.007,103.291 629.884,111.661 635.034,117.354 C633.444,122.12 633.987,127.34 636.524,131.676 C640.347,138.325 648.026,141.744 655.525,140.135 C658.86,143.891 663.652,146.028 668.675,146 C676.357,146.006 683.163,141.047 685.509,133.733 C690.431,132.721 694.68,129.639 697.169,125.274 C700.982,118.65 700.102,110.325 694.989,104.645 Z M668.675,141.419 C665.608,141.423 662.638,140.349 660.285,138.383 L660.699,138.148 L674.636,130.104 C675.341,129.69 675.777,128.935 675.781,128.117 L675.781,108.467 L681.673,111.876 C681.732,111.906 681.773,111.962 681.784,112.027 L681.784,128.31 C681.768,135.543 675.908,141.403 668.675,141.419 Z M640.498,129.386 C638.96,126.731 638.408,123.618 638.939,120.596 L639.352,120.845 L653.303,128.889 C654.006,129.302 654.877,129.302 655.58,128.889 L672.621,119.065 L672.621,125.867 C672.618,125.939 672.582,126.005 672.524,126.047 L658.409,134.188 C652.136,137.802 644.121,135.653 640.498,129.386 Z M636.827,99.029 C638.376,96.356 640.82,94.318 643.727,93.275 L643.727,109.833 C643.716,110.648 644.15,111.404 644.858,111.806 L661.817,121.59 L655.925,124.998 C655.86,125.032 655.783,125.032 655.718,124.998 L641.629,116.871 C635.369,113.242 633.222,105.234 636.827,98.96 L636.827,99.029 Z M685.233,110.275 L668.219,100.395 L674.098,97 C674.163,96.966 674.24,96.966 674.305,97 L688.393,105.142 C692.791,107.679 695.327,112.527 694.905,117.586 C694.483,122.645 691.177,127.006 686.42,128.779 L686.42,112.22 C686.395,111.408 685.944,110.669 685.233,110.275 Z M691.098,101.458 L690.683,101.209 L676.761,93.095 C676.054,92.68 675.177,92.68 674.47,93.095 L657.442,102.92 L657.442,96.118 C657.435,96.047 657.467,95.978 657.525,95.938 L671.614,87.811 C676.021,85.271 681.5,85.508 685.672,88.419 C689.844,91.329 691.958,96.389 691.097,101.402 L691.097,101.458 Z M654.228,113.517 L648.336,110.123 C648.276,110.087 648.235,110.026 648.225,109.957 L648.225,93.717 C648.232,88.631 651.176,84.007 655.782,81.85 C660.389,79.693 665.826,80.392 669.737,83.643 L669.323,83.878 L655.386,91.923 C654.681,92.336 654.246,93.092 654.241,93.91 L654.227,113.518 Z M657.429,106.618 L665.018,102.244 L672.621,106.618 L672.621,115.366 L665.046,119.741 L657.443,115.366 L657.429,106.618 Z" />
        </g>
    </g>
</svg>