<?xml version="1.0" encoding="UTF-8"?>
<svg height="600" width="800" xmlns="http://www.w3.org/2000/svg" xmlns:xlink="http://www.w3.org/1999/xlink">
    <g id="Notes" font-family="'LucidaGrande', 'Lucida Grande', sans-serif" font-size="13">
        <rect fill="white" height="600.0" width="800.0" x="0.0" y="0.0" />
        <g font-size="13">
            <text x="18.0" y="176.0">Small</text>
            <text x="18.0" y="376.0">Medium</text>
            <text x="18.0" y="576.0">Large</text>
        </g>
        <g font-size="9">
            <text x="250.0" y="30.0">Ultralight</text>
            <text x="450.0" y="30.0">Regular</text>
            <text x="650.0" y="30.0">Black</text>
            <text id="template-version" fill="#505050" text-anchor="end" x="785.0" y="575.0">Template v.3.0</text>
            <a href="https://wangchujiang.com/#/app">
                <text fill="#505050" text-anchor="end" x="785.0" y="590.0">https://wangchujiang.com/#/app</text>
            </a>
        </g>
    </g>
    <g id="Guides" stroke="rgb(39, 170, 225)" stroke-width="0.5">
        <path id="Capline-S" d="M18,76 l800,0" />
        <path id="H-reference" d="M85,145.755 L87.685,145.755 L113.369,79.287 L114.052,79.287 L114.052,76 L112.148,76 L85,145.755 Z M95.693,121.536 L130.996,121.536 L130.263,119.313 L96.474,119.313 L95.693,121.536 Z M139.15,145.755 L141.787,145.755 L114.638,76 L113.466,76 L113.466,79.287 L139.15,145.755 Z" stroke="none" />
        <path id="Baseline-S" d="M18,146 l800,0" />
        <path id="left-margin-Ultralight-S" d="M221,56 l0,110" />
        <path id="right-margin-Ultralight-S" d="M309,56 l0,110" />
        <path id="left-margin-Regular-S" d="M421,56 l0,110" />
        <path id="right-margin-Regular-S" d="M509,56 l0,110" />
        <path id="left-margin-Black-S" d="M621,56 l0,110" />
        <path id="right-margin-Black-S" d="M709,56 l0,110" />
        <path id="Capline-M" d="M18,276 l800,0" />
        <path id="Baseline-M" d="M18,346 l800,0" />
        <path id="Capline-L" d="M18,476 l800,0" />
        <path id="Baseline-L" d="M18,546 l800,0" />
    </g>
    <g id="Symbols">
        <g id="Ultralight-S">
            <path d="M266.055,120.55 C266.055,124.229 263.073,127.212 259.394,127.212 C255.715,127.212 252.733,124.229 252.733,120.55 C252.733,116.871 255.715,113.889 259.394,113.889 C263.073,113.889 266.055,116.871 266.055,120.55 Z" />
            <path d="M277.259,101.474 C277.259,105.153 274.277,108.136 270.598,108.136 C266.919,108.136 263.936,105.153 263.936,101.474 C263.936,97.795 266.919,94.813 270.598,94.813 C274.277,94.813 277.259,97.795 277.259,101.474 Z" />
            <path d="M284.405,122.821 C281.728,124.552 278.749,125.764 275.624,126.394 C276.53,123.812 276.83,121.056 276.502,118.34 C283.774,115.798 288.597,108.88 288.469,101.178 C288.34,93.476 283.289,86.723 275.937,84.425 C268.584,82.127 260.586,84.8 256.094,91.058 C252.705,91.44 249.406,92.403 246.344,93.905 C249.671,83.171 259.648,75.892 270.886,76.001 C282.123,76.11 291.957,83.582 295.075,94.378 C298.192,105.175 293.854,116.739 284.405,122.821 Z M246.647,98.537 L252.885,99.294 C253.026,98.089 253.29,96.902 253.672,95.751 C251.205,96.325 248.837,97.264 246.647,98.537 Z" />
            <path d="M245.557,99.204 C248.25,97.455 251.25,96.232 254.398,95.6 C253.446,98.182 253.104,100.949 253.399,103.685 C246.153,106.263 241.37,113.189 241.526,120.878 C241.682,128.568 246.742,135.294 254.087,137.576 C261.431,139.858 269.412,137.183 273.898,130.936 C277.286,130.564 280.584,129.611 283.648,128.12 C280.313,138.843 270.341,146.109 259.112,145.999 C247.883,145.889 238.056,138.428 234.931,127.642 C231.807,116.857 236.126,105.298 245.557,99.204 Z M283.315,123.487 L283.194,123.548 L283.315,123.487 Z" />
        </g>
        <g id="Regular-S">
            <path d="M466.055,120.55 C466.055,124.229 463.073,127.212 459.394,127.212 C455.715,127.212 452.733,124.229 452.733,120.55 C452.733,116.871 455.715,113.889 459.394,113.889 C463.073,113.889 466.055,116.871 466.055,120.55 Z" />
            <path d="M477.259,101.474 C477.259,105.153 474.277,108.136 470.598,108.136 C466.919,108.136 463.936,105.153 463.936,101.474 C463.936,97.795 466.919,94.813 470.598,94.813 C474.277,94.813 477.259,97.795 477.259,101.474 Z" />
            <path d="M484.405,122.821 C481.728,124.552 478.749,125.764 475.624,126.394 C476.53,123.812 476.83,121.056 476.502,118.34 C483.774,115.798 488.597,108.88 488.469,101.178 C488.34,93.476 483.289,86.723 475.937,84.425 C468.584,82.127 460.586,84.8 456.094,91.058 C452.705,91.44 449.406,92.403 446.344,93.905 C449.671,83.171 459.648,75.892 470.886,76.001 C482.123,76.11 491.957,83.582 495.075,94.378 C498.192,105.175 493.854,116.739 484.405,122.821 Z M446.647,98.537 L452.885,99.294 C453.026,98.089 453.29,96.902 453.672,95.751 C451.205,96.325 448.837,97.264 446.647,98.537 Z" />
            <path d="M445.557,99.204 C448.25,97.455 451.25,96.232 454.398,95.6 C453.446,98.182 453.104,100.949 453.399,103.685 C446.153,106.263 441.37,113.189 441.526,120.878 C441.682,128.568 446.742,135.294 454.087,137.576 C461.431,139.858 469.412,137.183 473.898,130.936 C477.286,130.564 480.584,129.611 483.648,128.12 C480.313,138.843 470.341,146.109 459.112,145.999 C447.883,145.889 438.056,138.428 434.931,127.642 C431.807,116.857 436.126,105.298 445.557,99.204 Z M483.315,123.487 L483.194,123.548 L483.315,123.487 Z" />
        </g>
        <g id="Black-S">
            <path d="M666.055,120.55 C666.055,124.229 663.073,127.212 659.394,127.212 C655.715,127.212 652.733,124.229 652.733,120.55 C652.733,116.871 655.715,113.889 659.394,113.889 C663.073,113.889 666.055,116.871 666.055,120.55 Z" />
            <path d="M677.259,101.474 C677.259,105.153 674.277,108.136 670.597,108.136 C666.919,108.136 663.936,105.153 663.936,101.474 C663.936,97.795 666.919,94.813 670.598,94.813 C674.277,94.813 677.259,97.795 677.259,101.474 Z" />
            <path d="M684.405,122.821 C681.728,124.552 678.749,125.764 675.624,126.394 C676.53,123.812 676.83,121.056 676.502,118.34 C683.774,115.798 688.597,108.88 688.469,101.178 C688.34,93.476 683.289,86.723 675.937,84.425 C668.584,82.127 660.586,84.8 656.094,91.058 C652.705,91.44 649.406,92.403 646.344,93.905 C649.671,83.171 659.648,75.892 670.886,76.001 C682.123,76.11 691.957,83.582 695.075,94.378 C698.192,105.175 693.854,116.739 684.405,122.821 Z M646.647,98.537 L652.885,99.294 C653.026,98.089 653.29,96.902 653.672,95.751 C651.205,96.325 648.837,97.264 646.647,98.537 Z" />
            <path d="M645.557,99.204 C648.25,97.455 651.25,96.232 654.398,95.6 C653.446,98.182 653.104,100.949 653.399,103.685 C646.153,106.263 641.37,113.189 641.526,120.878 C641.682,128.568 646.742,135.294 654.087,137.576 C661.431,139.858 669.412,137.183 673.898,130.936 C677.286,130.564 680.584,129.611 683.648,128.12 C680.313,138.843 670.341,146.109 659.112,145.999 C647.883,145.889 638.056,138.428 634.931,127.642 C631.807,116.857 636.126,105.298 645.557,99.204 Z M683.315,123.487 L683.194,123.548 L683.315,123.487 Z" />
        </g>
    </g>
</svg>